<svg xmlns="http://www.w3.org/2000/svg" viewBox="0 0 64 64">
  <defs>
    <linearGradient id="blue" x1="8" y1="6" x2="56" y2="58" gradientUnits="userSpaceOnUse">
      <stop stop-color="#3b82f6"/>
      <stop offset="1" stop-color="#1d4ed8"/>
    </linearGradient>
  </defs>
  <rect width="64" height="64" rx="18" fill="url(#blue)"/>
  <path d="m22 43 20-20m-16-4 2.2 5.8L34 27l-5.8 2.2L26 35l-2.2-5.8L18 27l5.8-2.2L26 19Zm17 19 1.4 3.6L48 43l-3.6 1.4L43 48l-1.4-3.6L38 43l3.6-1.4L43 38Zm2-25 1 2.7 2.7 1-2.7 1-1 2.7-1-2.7-2.7-1 2.7-1 1-2.7Z" fill="none" stroke="#fff" stroke-linecap="round" stroke-linejoin="round" stroke-width="3"/>
</svg>
